# xmcd
#
# Track frame offsets:
#	180
#	15478
#	28725
#	43044
#	54461
#	68908
#	81632
#	95007
#	111418
#	122734
#	134906
#	151850
#
# Disc length: 2185 seconds
#
# Revision: 1
# Processed by: cddbd v1.5.1PL2 Copyright (c) Steve Scherf et al.
# Submitted via: audiograbber 1.83.01
#
DISCID=ab08870c
DTITLE=Gitti und Erika - Liebe öffnet alle Türen
DYEAR=1994
DGENRE=Folk
TTITLE0=Die Rosen der Heimat
TTITLE1=Der treue Husar
TTITLE2=Liebe öffnet alle Türen
TTITLE3=Ich bin immer für Dich da
TTITLE4=Sarina
TTITLE5=Otto,Otto,heut spiel ich Lotto
TTITLE6=Wenn jemand Dich liebt
TTITLE7=Glaub`mir
TTITLE8=Mein Schatz das ist ein Feuerwehrmann
TTITLE9=Karussell der Liebe
TTITLE10=Ich hab`Sehnsucht nach der Ferne
TTITLE11=Ist das nicht ein Grund zum Feiern?!
EXTD=
EXTT0=
EXTT1=
EXTT2=
EXTT3=
EXTT4=
EXTT5=
EXTT6=
EXTT7=
EXTT8=
EXTT9=
EXTT10=
EXTT11=
PLAYORDER=
